<svg width="40" height="493" viewBox="0 0 40 493" fill="none" xmlns="http://www.w3.org/2000/svg">
<rect x="19.5" width="1" height="210.5" fill="#DAC5A7" fill-opacity="0.15"/>
<g filter="url(#filter0_b_33_20121)">
<rect y="226.5" width="40" height="40" rx="20" fill="#DAC5A7" fill-opacity="0.05"/>
<rect x="0.5" y="227" width="39" height="39" rx="19.5" stroke="#DAC5A7" stroke-opacity="0.15"/>
<path d="M11.7384 247.346C11.7384 250.245 13.1294 252.169 15.4694 252.169C17.7964 252.169 19.1874 250.245 19.1874 247.346C19.1874 244.46 17.7704 242.51 15.4694 242.51C13.1554 242.51 11.7384 244.46 11.7384 247.346ZM12.6614 247.346C12.6614 244.915 13.6884 243.368 15.4694 243.368C17.2504 243.368 18.2774 244.915 18.2774 247.346C18.2774 249.764 17.2504 251.324 15.4694 251.324C13.6884 251.324 12.6614 249.764 12.6614 247.346ZM25.1675 252.156C27.1175 252.156 28.4435 250.83 28.4435 248.958C28.4435 247.216 27.2475 245.825 25.3105 245.825C24.5825 245.825 23.9065 246.059 23.3865 246.475L24.0885 243.55H27.9105V242.692H23.4125L22.2945 247.372L23.0355 247.606C23.5425 247.047 24.3225 246.657 25.1805 246.657C26.6495 246.657 27.4945 247.684 27.4945 248.984C27.4945 250.362 26.5845 251.298 25.1805 251.298C23.8545 251.298 23.0355 250.492 23.0355 249.153H22.0995C22.0995 250.986 23.2955 252.156 25.1675 252.156Z" fill="#DAC5A7"/>
</g>
<rect x="19.5" y="282.5" width="1" height="210.5" fill="#0E0E0E"/>
<defs>
<filter id="filter0_b_33_20121" x="-30" y="196.5" width="100" height="100" filterUnits="userSpaceOnUse" color-interpolation-filters="sRGB">
<feFlood flood-opacity="0" result="BackgroundImageFix"/>
<feGaussianBlur in="BackgroundImageFix" stdDeviation="15"/>
<feComposite in2="SourceAlpha" operator="in" result="effect1_backgroundBlur_33_20121"/>
<feBlend mode="normal" in="SourceGraphic" in2="effect1_backgroundBlur_33_20121" result="shape"/>
</filter>
</defs>
</svg>
